<?xml version="1.0" encoding="UTF-8" standalone="no"?>
<svg
   xmlns:dc="http://purl.org/dc/elements/1.1/"
   xmlns:cc="http://creativecommons.org/ns#"
   xmlns:rdf="http://www.w3.org/1999/02/22-rdf-syntax-ns#"
   xmlns:svg="http://www.w3.org/2000/svg"
   xmlns="http://www.w3.org/2000/svg"
   xmlns:sodipodi="http://sodipodi.sourceforge.net/DTD/sodipodi-0.dtd"
   xmlns:inkscape="http://www.inkscape.org/namespaces/inkscape"
   version="1.1"
   id="Layer_1"
   x="0px"
   y="0px"
   width="100%"
   viewBox="0 0 1323 330"
   enable-background="new 0 0 1323 330"
   xml:space="preserve"
   sodipodi:docname="logo.svg"
   inkscape:version="1.0.1 (c497b03c, 2020-09-10)"><metadata
   id="metadata943"><rdf:RDF><cc:Work
       rdf:about=""><dc:format>image/svg+xml</dc:format><dc:type
         rdf:resource="http://purl.org/dc/dcmitype/StillImage" /></cc:Work></rdf:RDF></metadata><defs
   id="defs941" /><sodipodi:namedview
   pagecolor="#ffffff"
   bordercolor="#666666"
   borderopacity="1"
   objecttolerance="10"
   gridtolerance="10"
   guidetolerance="10"
   inkscape:pageopacity="0"
   inkscape:pageshadow="2"
   inkscape:window-width="1684"
   inkscape:window-height="931"
   id="namedview939"
   showgrid="false"
   inkscape:zoom="0.53817082"
   inkscape:cx="661.5"
   inkscape:cy="165"
   inkscape:window-x="0"
   inkscape:window-y="25"
   inkscape:window-maximized="0"
   inkscape:current-layer="Layer_1" />

<path
   fill="#4F8AF8"
   opacity="1.000000"
   stroke="none"
   d=" M233.562500,0.999995   C234.683838,1.664285 235.252213,2.651278 236.069153,2.943548   C245.470734,6.307095 254.910019,9.565236 264.624298,13.356710   C262.442810,18.901752 260.006683,23.956608 257.504120,28.978380   C250.265335,43.504124 243.059555,58.046902 235.704330,72.513596   C233.783127,76.292374 231.364273,79.818138 228.870483,83.341118   C216.866547,77.457214 208.083054,75.835068 198.028442,77.611588   C210.372620,81.994492 218.669876,90.089272 221.460678,103.052414   C220.109909,104.336975 218.855453,105.445869 218.126114,106.831215   C215.428818,111.954491 212.881027,117.157272 210.320236,122.351456   C201.470413,140.301926 192.683670,158.283691 183.779388,176.207062   C179.903091,184.009628 175.719635,191.659332 171.822495,199.451904   C168.116287,206.862656 164.601532,214.369141 160.538010,221.899765   C148.716705,221.921951 137.359985,221.877914 126.047745,221.484589   C131.526657,210.145386 136.952454,199.151199 142.397430,188.166550   C151.281647,170.243637 160.229797,152.352173 169.045685,134.395752   C172.832687,126.682304 176.356033,118.839424 180.462936,110.981010   C190.846024,110.906670 200.765350,110.906670 211.136230,110.906670   C210.917419,108.223648 210.911133,106.250374 210.575012,104.334991   C208.494385,92.478378 201.233444,84.592194 191.000275,78.644241   C195.652817,68.214211 200.103149,58.075256 204.990585,48.151592   C211.004379,35.940998 217.502975,23.969275 223.524704,11.762425   C225.174789,8.417482 225.867813,4.600420 227.000000,1.000002   C229.041672,1.000000 231.083328,1.000000 233.562500,0.999995  z"
   id="path844" />
<path
   fill="#5D6FF8"
   opacity="1.000000"
   stroke="none"
   d=" M326.048279,83.892326   C330.664001,95.521957 332.292267,107.640923 331.565613,120.607819   C330.624298,121.739418 329.921844,122.259407 329.586517,122.956078   C322.260803,138.175430 315.123627,153.487457 307.640167,168.628448   C300.595551,182.881531 293.150604,196.936218 285.962830,211.119247   C279.895721,223.091049 273.872345,235.086288 267.972260,247.140976   C264.923676,253.369690 262.375580,259.845978 259.259033,266.038147   C255.274307,273.955322 250.836838,281.643616 246.789612,289.530670   C241.509720,299.819916 236.358551,310.176758 231.285995,320.569946   C229.640732,323.940887 228.416718,327.517487 227.000000,331.000000   C219.979050,331.000000 212.958099,331.000000 205.506134,330.644653   C206.858170,326.616577 208.581116,322.913177 210.436615,319.277405   C214.480499,311.353638 218.641647,303.489532 222.663040,295.554504   C227.722305,285.571533 232.813721,275.600922 237.615540,265.493988   C238.922165,262.743805 239.236984,259.522400 240.281143,256.334534   C240.710159,255.765259 240.865021,255.378647 241.324783,254.841492   C243.105453,252.552307 244.729233,250.499100 246.023560,248.255814   C248.161285,244.550766 250.086349,240.723022 252.419800,237.105347   C253.890198,238.246780 255.041840,239.229874 257.385529,241.230545   C257.385529,232.128967 257.385529,224.565414 257.737976,216.992325   C259.534943,215.354218 261.419647,213.941559 262.343750,212.057693   C265.452789,205.719803 267.971832,199.088287 271.164520,192.796402   C280.587921,174.225571 290.358704,155.830673 299.742065,137.239990   C308.675537,119.540573 317.292267,101.681305 326.048279,83.892326  z"
   id="path846" />
<path
   fill="#41A4F9"
   opacity="1.000000"
   stroke="none"
   d=" M118.000000,1.000000   C126.354233,1.000000 134.708466,1.000000 143.525955,1.377442   C141.768204,6.851025 139.758331,12.052189 137.285629,17.023134   C130.533035,30.598087 123.450447,44.009850 116.776924,57.622711   C113.843147,63.607109 111.584908,69.922684 108.701889,76.292923   C91.053192,79.024330 79.421700,90.287354 77.382912,107.076256   C76.705635,112.653511 77.060989,118.356171 76.597641,124.061417   C74.862183,126.685593 73.418938,129.222076 72.093323,131.818619   C63.527714,148.596420 54.878666,165.332870 46.466404,182.187408   C35.366585,204.426605 24.504423,226.784531 13.362064,249.002136   C12.656110,250.409805 10.413343,251.046753 8.554922,251.854843   C6.538627,244.111313 4.852936,236.555206 3.507025,228.952148   C4.713569,227.969040 5.851844,227.170288 6.405792,226.075806   C13.155849,212.739243 19.803391,199.350845 26.510477,185.992462   C36.020302,167.051941 45.539181,148.115921 55.089054,129.195572   C62.539013,114.435585 70.067360,99.715164 77.513069,84.953049   C82.896133,74.280418 88.222923,63.579224 93.534599,52.870819   C99.702560,40.436134 105.908943,28.019291 111.927383,15.512286   C114.198105,10.793483 115.989891,5.844213 118.000000,1.000000  z"
   id="path848" />
<path
   fill="#5F6AF8"
   opacity="1.000000"
   stroke="none"
   d=" M227.416656,331.000000   C228.416718,327.517487 229.640732,323.940887 231.285995,320.569946   C236.358551,310.176758 241.509720,299.819916 246.789612,289.530670   C250.836838,281.643616 255.274307,273.955322 259.259033,266.038147   C262.375580,259.845978 264.923676,253.369690 267.972260,247.140976   C273.872345,235.086288 279.895721,223.091049 285.962830,211.119247   C293.150604,196.936218 300.595551,182.881531 307.640167,168.628448   C315.123627,153.487457 322.260803,138.175430 329.586517,122.956078   C329.921844,122.259407 330.624298,121.739418 331.494537,121.068703   C331.879730,148.072098 331.926117,175.143951 331.618225,202.832794   C323.315582,211.706360 315.268982,219.871307 307.453491,228.251755   C302.252350,233.828903 297.091736,239.488770 292.416595,245.503098   C278.584229,263.297729 264.717804,281.079437 251.436401,299.283295   C244.328659,309.025391 238.397293,319.625793 231.935059,329.838867   C231.788635,330.041168 231.642212,330.243500 231.747894,330.722900   C230.611115,331.000000 229.222214,331.000000 227.416656,331.000000  z"
   id="path850" />
<path
   fill="#B6B6B6"
   opacity="1.000000"
   stroke="none"
   d=" M1324.000000,210.531326   C1323.333008,211.492264 1322.293945,211.848312 1322.056152,212.497742   C1319.452881,219.607697 1313.664185,222.743912 1306.871704,222.860718   C1285.049805,223.236038 1263.217285,223.064148 1241.389282,222.968124   C1232.931152,222.930923 1226.096802,216.799362 1225.028564,208.504272   C1224.400391,203.626755 1224.060059,198.712158 1223.549072,193.383621   C1227.838745,193.383621 1231.566772,193.383621 1235.495361,193.383621   C1235.976074,197.336624 1236.525757,201.501328 1236.979492,205.676453   C1237.561890,211.033295 1241.410645,212.859467 1245.849609,212.910370   C1264.342896,213.122482 1282.840698,213.087601 1301.335449,212.949936   C1307.522949,212.903870 1310.953369,209.111664 1310.994629,203.017395   C1311.022827,198.851868 1310.999023,194.686005 1310.999390,190.520294   C1311.000000,181.643463 1308.848877,178.992996 1300.237183,178.038010   C1284.286011,176.269073 1268.315796,174.669785 1252.353271,173.002487   C1249.100342,172.662704 1245.822510,172.483047 1242.597046,171.971695   C1234.531982,170.693100 1228.072144,166.374832 1226.864258,157.756241   C1225.671021,149.241882 1224.939819,140.907883 1228.657593,132.738922   C1230.974854,127.647362 1235.224365,125.198143 1240.202026,124.141884   C1244.344604,123.262810 1248.691406,123.099457 1252.951416,123.064949   C1267.780396,122.944809 1282.613525,122.861237 1297.439087,123.116264   C1301.773560,123.190826 1306.285156,123.866219 1310.368530,125.273270   C1317.941895,127.882896 1320.613037,134.238464 1320.971436,141.736938   C1321.138184,145.226410 1321.000000,148.730453 1321.000000,152.614441   C1317.177490,152.614441 1313.449219,152.614441 1309.500732,152.614441   C1309.060181,148.686310 1308.782349,144.484039 1308.073120,140.355927   C1307.316772,135.954407 1304.106689,134.056854 1299.940186,134.036942   C1282.277954,133.952530 1264.614868,133.948029 1246.952637,134.033173   C1241.583130,134.059052 1238.512085,137.474411 1238.097656,144.841660   C1237.526367,154.996750 1239.719116,161.563736 1251.816040,162.207169   C1267.824707,163.058640 1283.779663,165.154449 1299.712280,167.090103   C1306.740601,167.944000 1314.229492,168.301422 1319.183350,174.705399   C1320.656860,176.610291 1322.000488,178.615677 1323.701782,180.287537   C1324.000000,190.020889 1324.000000,200.041794 1324.000000,210.531326  z"
   id="path852" />
<path
   fill="#4E8BF8"
   opacity="1.000000"
   stroke="none"
   d=" M108.000000,331.000000   C105.629440,331.000000 103.258888,331.000000 100.713646,330.637207   C99.537849,329.849213 98.574196,329.233002 97.529861,329.028229   C86.036324,326.774475 75.200813,322.747437 65.099358,316.793091   C67.549873,312.871918 70.143051,309.414398 72.100418,305.628174   C77.944702,294.323242 83.585358,282.911987 89.216743,271.498474   C93.218521,263.387726 97.076576,255.206085 101.345673,247.123932   C106.608101,249.430161 111.326683,252.642899 116.483948,253.685349   C124.838402,255.374069 133.480804,255.638275 142.000244,256.866150   C141.438828,258.933990 141.083710,260.743469 140.281464,262.326355   C137.528946,267.757080 134.487946,273.043427 131.796036,278.502716   C124.855980,292.577393 117.958771,306.674927 111.246017,320.858734   C109.740921,324.038910 109.060226,327.609253 108.000000,331.000000  z"
   id="path854" />
<path
   fill="#4A94F8"
   opacity="1.000000"
   stroke="none"
   d=" M226.531342,1.000002   C225.867813,4.600420 225.174789,8.417482 223.524704,11.762425   C217.502975,23.969275 211.004379,35.940998 204.990585,48.151592   C200.103149,58.075256 195.652817,68.214211 190.605591,78.643677   C183.742981,78.095863 177.309906,76.766411 170.816925,76.331535   C163.238770,75.823982 155.608292,76.097687 148.038757,75.661682   C154.922424,60.859066 161.698593,46.393795 168.636429,32.006477   C173.646301,21.617304 178.871078,11.331767 184.000000,1.000003   C198.020889,1.000000 212.041794,1.000000 226.531342,1.000002  z"
   id="path856" />
<path
   fill="#5481F8"
   opacity="1.000000"
   stroke="none"
   d=" M108.468658,331.000000   C109.060226,327.609253 109.740921,324.038910 111.246017,320.858734   C117.958771,306.674927 124.855980,292.577393 131.796036,278.502716   C134.487946,273.043427 137.528946,267.757080 140.281464,262.326355   C141.083710,260.743469 141.438828,258.933990 142.459412,256.767975   C156.947083,256.373322 170.974197,256.439087 184.999939,256.870728   C183.326843,261.331329 181.854446,265.521942 179.939819,269.499725   C176.502640,276.640656 172.746002,283.626984 169.220520,290.726410   C163.866440,301.508179 158.520370,312.295471 153.347626,323.164520   C152.189651,325.597687 151.763229,328.378967 151.000000,331.000000   C136.979111,331.000000 122.958214,331.000000 108.468658,331.000000  z"
   id="path858" />


<path
   fill="#459DF9"
   opacity="1.000000"
   stroke="none"
   d=" M183.531342,1.000003   C178.871078,11.331767 173.646301,21.617304 168.636429,32.006477   C161.698593,46.393795 154.922424,60.859066 147.575134,75.738663   C134.388809,76.153549 121.704376,76.120720 109.019943,76.087891   C111.584908,69.922684 113.843147,63.607109 116.776924,57.622711   C123.450447,44.009850 130.533035,30.598087 137.285629,17.023134   C139.758331,12.052189 141.768204,6.851025 143.994598,1.377442   C157.020889,1.000000 170.041794,1.000000 183.531342,1.000003  z"
   id="path864" />
<path
   fill="#3FA8F9"
   opacity="1.000000"
   stroke="none"
   d=" M3.507025,228.952148   C2.643178,228.143997 2.119110,227.288925 1.297521,226.716919   C1.000000,218.645767 1.000000,210.291534 1.366007,201.507965   C6.840092,203.388763 7.031523,199.435944 8.611526,196.230820   C17.451832,178.297836 26.711935,160.572372 35.633759,142.678848   C45.971684,121.945213 56.050968,101.082748 66.347244,80.328156   C77.178749,58.494701 88.220436,36.765083 98.962585,14.888103   C101.120338,10.493747 102.345078,5.641259 104.000000,1.000000   C108.356903,1.000000 112.713799,1.000000 117.535355,1.000000   C115.989891,5.844213 114.198105,10.793483 111.927383,15.512286   C105.908943,28.019291 99.702560,40.436134 93.534599,52.870819   C88.222923,63.579224 82.896133,74.280418 77.513069,84.953049   C70.067360,99.715164 62.539013,114.435585 55.089054,129.195572   C45.539181,148.115921 36.020302,167.051941 26.510477,185.992462   C19.803391,199.350845 13.155849,212.739243 6.405792,226.075806   C5.851844,227.170288 4.713569,227.969040 3.507025,228.952148  z"
   id="path866" />
<path
   fill="#3DADF9"
   opacity="1.000000"
   stroke="none"
   d=" M73.958496,10.885080   C79.043907,8.931366 84.129318,6.977652 89.607376,5.504331   C89.395119,8.521864 89.228035,11.273718 88.107735,13.558098   C83.799500,22.342972 79.023819,30.898762 74.722458,39.686825   C67.370956,54.706596 60.414852,69.921043 52.981377,84.899239   C43.988895,103.018768 34.548687,120.915932 25.535313,139.025314   C18.156248,153.851089 11.147328,168.860870 3.865582,183.735840   C3.382895,184.721863 1.976668,185.255798 1.000003,186.000000   C1.000000,174.979111 1.000000,163.958206 1.387243,152.468048   C3.403596,150.898315 5.746653,150.171021 6.547995,148.637878   C12.538386,137.176971 18.175407,125.532143 24.015841,113.991867   C33.961742,94.339470 44.030849,74.749283 53.934479,55.075718   C58.110481,46.780098 62.122044,38.395802 65.975044,29.945436   C68.831367,23.680973 71.311043,17.244778 73.958496,10.885080  z"
   id="path868" />
<path
   fill="#3EAAF9"
   opacity="1.000000"
   stroke="none"
   d=" M1.000003,186.466125   C1.976668,185.255798 3.382895,184.721863 3.865582,183.735840   C11.147328,168.860870 18.156248,153.851089 25.535313,139.025314   C34.548687,120.915932 43.988895,103.018768 52.981377,84.899239   C60.414852,69.921043 67.370956,54.706596 74.722458,39.686825   C79.023819,30.898762 83.799500,22.342972 88.107735,13.558098   C89.228035,11.273718 89.395119,8.521864 90.000107,5.575995   C93.525352,4.011023 97.050499,2.854780 100.287827,1.349269   C101.066673,1.000000 102.133339,1.000000 103.600006,1.000000   C102.345078,5.641259 101.120338,10.493747 98.962585,14.888103   C88.220436,36.765083 77.178749,58.494701 66.347244,80.328156   C56.050968,101.082748 45.971684,121.945213 35.633759,142.678848   C26.711935,160.572372 17.451832,178.297836 8.611526,196.230820   C7.031523,199.435944 6.840092,203.388763 1.366007,201.039307   C1.000000,196.310745 1.000000,191.621490 1.000003,186.466125  z"
   id="path870" />
<path
   fill="#5879F8"
   opacity="1.000000"
   stroke="none"
   d=" M151.468658,331.000000   C151.763229,328.378967 152.189651,325.597687 153.347626,323.164520   C158.520370,312.295471 163.866440,301.508179 169.220520,290.726410   C172.746002,283.626984 176.502640,276.640656 179.939819,269.499725   C181.854446,265.521942 183.326843,261.331329 185.459167,256.772888   C194.613464,256.374878 203.307144,256.440582 211.999542,256.866486   C211.396011,258.904633 210.976746,260.678619 210.156204,262.242004   C207.946472,266.452148 205.392258,270.486664 203.285126,274.744476   C197.007278,287.429810 190.787537,300.145874 184.731476,312.938141   C181.931213,318.853149 179.563721,324.973022 177.000000,331.000000   C168.645767,331.000000 160.291534,331.000000 151.468658,331.000000  z"
   id="path872" />
<path
   fill="#3BB0F9"
   opacity="1.000000"
   stroke="none"
   d=" M73.578766,10.936073   C71.311043,17.244778 68.831367,23.680973 65.975044,29.945436   C62.122044,38.395802 58.110481,46.780098 53.934479,55.075718   C44.030849,74.749283 33.961742,94.339470 24.015841,113.991867   C18.175407,125.532143 12.538386,137.176971 6.547995,148.637878   C5.746653,150.171021 3.403596,150.898315 1.387243,151.999390   C1.000000,143.312439 1.000000,134.624878 1.375974,125.463196   C2.965355,124.049843 4.677316,123.367538 5.314385,122.131302   C11.131849,110.842400 16.765575,99.458748 22.446684,88.099640   C31.770096,69.457932 41.188263,50.862217 50.298622,32.116928   C51.613003,29.412485 51.438068,25.984221 51.952339,22.890919   C59.034576,18.922968 66.116814,14.955018 73.578766,10.936073  z"
   id="path874" />
<path
   fill="#3AB3F9"
   opacity="1.000000"
   stroke="none"
   d=" M51.636864,23.030579   C51.438068,25.984221 51.613003,29.412485 50.298622,32.116928   C41.188263,50.862217 31.770096,69.457932 22.446684,88.099640   C16.765575,99.458748 11.131849,110.842400 5.314385,122.131302   C4.677316,123.367538 2.965355,124.049843 1.375974,124.994537   C1.000000,118.645599 1.000000,112.291206 1.000000,105.468399   C1.664490,104.319298 2.819013,103.705353 2.922171,102.948174   C5.901557,81.079689 14.338512,61.533276 28.793808,44.934444   C35.625500,37.089699 43.771103,30.389187 51.636864,23.030579  z"
   id="path876" />
<path
   fill="#5B73F8"
   opacity="1.000000"
   stroke="none"
   d=" M240.006989,256.517242   C239.236984,259.522400 238.922165,262.743805 237.615540,265.493988   C232.813721,275.600922 227.722305,285.571533 222.663040,295.554504   C218.641647,303.489532 214.480499,311.353638 210.436615,319.277405   C208.581116,322.913177 206.858170,326.616577 205.037567,330.644653   C200.310745,331.000000 195.621490,331.000000 190.471558,330.621887   C190.648514,328.551880 191.150146,326.792877 191.946198,325.179108   C196.629364,315.685303 201.387527,306.228546 206.107819,296.753021   C209.951813,289.036591 213.888199,281.363434 217.575394,273.572540   C220.228027,267.967651 222.537888,262.200531 225.457214,256.407471   C230.611542,256.378510 235.309265,256.447876 240.006989,256.517242  z"
   id="path878" />
<path
   fill="#5975F8"
   opacity="1.000000"
   stroke="none"
   d=" M225.000626,256.505768   C222.537888,262.200531 220.228027,267.967651 217.575394,273.572540   C213.888199,281.363434 209.951813,289.036591 206.107819,296.753021   C201.387527,306.228546 196.629364,315.685303 191.946198,325.179108   C191.150146,326.792877 190.648514,328.551880 190.005432,330.621887   C185.975449,331.000000 181.950912,331.000000 177.463196,331.000000   C179.563721,324.973022 181.931213,318.853149 184.731476,312.938141   C190.787537,300.145874 197.007278,287.429810 203.285126,274.744476   C205.392258,270.486664 207.946472,266.452148 210.156204,262.242004   C210.976746,260.678619 211.396011,258.904633 212.453552,256.768494   C216.939423,256.375458 220.970016,256.440613 225.000626,256.505768  z"
   id="path880" />
<path
   fill="#FCFEFF"
   opacity="1.000000"
   stroke="none"
   d=" M685.899658,145.334747   C685.527832,148.308273 685.608521,150.985580 684.861145,153.407349   C684.426392,154.816101 682.725220,156.756393 681.488281,156.837051   C675.847595,157.204956 670.162781,157.142334 664.510010,156.883347   C663.308960,156.828308 661.108765,155.213135 661.172546,154.471924   C661.968811,145.217743 660.973328,135.478088 669.103027,128.255646   C674.509277,123.452744 681.019287,122.321899 687.547546,122.138779   C702.863525,121.709160 718.217224,121.554672 733.521484,122.157791   C743.749146,122.560844 754.480591,123.867958 759.788574,134.566895   C762.143188,139.312744 763.721985,144.954956 763.815674,150.222992   C764.236389,173.873917 763.998230,197.536591 763.985718,221.195007   C763.985474,221.658051 763.836853,222.121048 763.723206,222.783966   C757.365967,222.783966 751.088257,222.783966 744.383484,222.783966   C743.520874,218.829102 742.610046,214.653275 741.877441,211.294647   C735.919922,214.481476 729.742737,218.147232 723.242249,221.101334   C720.262756,222.455307 716.662231,222.789948 713.317444,222.920273   C706.496887,223.186020 699.645569,222.724258 692.829895,223.046768   C660.206360,224.590469 655.791138,217.133301 657.031311,186.883102   C657.109558,184.974838 657.664124,183.089081 657.951294,181.185959   C659.714050,169.503021 668.257812,165.299042 678.252930,165.105408   C697.072693,164.740799 715.904419,165.000137 734.731201,165.000092   C736.354187,165.000092 737.977234,165.000092 739.995544,165.000092   C739.995544,160.003906 740.308411,155.356949 739.922424,150.768784   C739.340637,143.851746 735.172852,140.227097 727.412903,140.060211   C716.421814,139.823853 705.420532,139.905243 694.426392,140.055115   C690.885254,140.103378 687.805420,141.569336 685.899658,145.334747  M701.523743,179.000061   C699.031189,179.000076 696.530334,178.867599 694.047546,179.023300   C684.018982,179.652252 680.253174,181.594955 680.976196,191.943481   C681.138000,194.258560 680.644226,196.664322 681.083191,198.904739   C681.759705,202.357697 682.758850,205.833038 687.394592,206.022003   C693.777222,206.282181 700.151672,206.853760 706.535095,206.959030   C717.841370,207.145493 728.358887,204.750198 736.871338,196.627533   C737.957703,195.590973 739.768433,194.520462 739.852051,193.365005   C740.193420,188.646606 739.994324,183.889084 739.994324,179.000061   C727.081665,179.000061 714.798950,179.000061 701.523743,179.000061  z"
   id="path882" />
<path
   fill="#FCFEFF"
   opacity="1.000000"
   stroke="none"
   d=" M407.000183,201.862183   C406.666534,184.178085 405.823425,166.929596 406.208679,149.708603   C406.409271,140.741470 407.835876,131.053955 417.308441,126.434586   C422.217407,124.040703 427.953400,122.401581 433.382812,122.196457   C448.352234,121.630898 463.372162,121.590340 478.342529,122.143280   C488.546356,122.520180 498.760345,124.385681 503.102448,135.718307   C504.628174,139.700317 505.790802,144.085571 505.871338,148.310471   C506.185547,164.794357 506.293488,181.295151 505.878723,197.774567   C505.663666,206.318863 503.489899,214.552002 495.164001,219.235703   C492.476929,220.747314 489.396820,221.560242 486.519440,222.683823   C491.261353,228.695786 496.160095,234.906555 501.746674,241.989395   C492.700470,241.989395 484.410522,242.673279 476.352875,241.604874   C473.665558,241.248550 471.462585,236.491226 469.239441,233.591522   C466.985626,230.651917 465.161407,227.367767 462.769836,224.557175   C461.915070,223.552628 459.957489,223.088181 458.492920,223.066086   C449.667023,222.932938 440.832214,222.796280 432.011688,223.051514   C421.069489,223.368149 408.231384,216.491837 407.000183,201.862183  M429.999603,195.062103   C430.064789,199.310440 432.082458,201.834610 436.446075,201.982544   C447.840790,202.368866 459.242767,203.021713 470.633636,202.884995   C479.509827,202.778427 482.816589,200.128143 482.925751,193.787460   C483.163727,179.968124 483.146912,166.139557 482.931885,152.319473   C482.835968,146.157074 479.228088,143.025345 473.129852,143.008835   C461.471619,142.977264 449.812988,142.951874 438.155060,143.021576   C432.942200,143.052734 430.009247,146.076172 430.004150,151.178787   C429.989838,165.501846 429.998505,179.824936 429.999603,195.062103  z"
   id="path884" />
<path
   fill="#B6B6B6"
   opacity="1.000000"
   stroke="none"
   d=" M1201.000000,183.999268   C1200.668823,191.241730 1200.970825,198.089661 1199.871338,204.704559   C1197.745850,217.489029 1189.653442,222.007309 1177.376343,222.843796   C1166.437622,223.589111 1155.395874,223.324875 1144.421631,222.914673   C1131.871338,222.445541 1120.731323,217.865311 1111.128906,209.684631   C1110.783447,209.390305 1110.309814,209.246658 1109.433350,208.793777   C1108.827881,213.510086 1108.258057,217.948380 1107.648193,222.698029   C1104.724976,222.698029 1101.651489,222.698029 1098.285156,222.698029   C1098.285156,178.674286 1098.285156,134.637741 1098.285156,90.300079   C1101.996948,90.300079 1105.724365,90.300079 1109.824585,90.300079   C1109.824585,105.743080 1109.824585,121.164116 1109.824585,137.475906   C1113.233398,135.260681 1116.046143,133.546234 1118.739258,131.660873   C1126.182373,126.450096 1134.470459,124.156189 1143.495850,123.968102   C1152.088013,123.789040 1160.676514,123.067001 1169.262939,123.127182   C1174.104492,123.161110 1178.954590,124.189484 1183.772583,124.949005   C1196.118530,126.895248 1200.825195,139.278687 1200.959351,148.533493   C1201.128052,160.186569 1201.000000,171.843948 1201.000000,183.999268  M1110.000000,155.675140   C1110.000000,168.161682 1109.943604,180.648773 1110.068237,193.134064   C1110.084595,194.781906 1110.508057,197.056885 1111.620728,197.960159   C1118.831543,203.813797 1126.444824,209.874496 1135.826782,210.760910   C1149.143799,212.019135 1162.613159,211.669403 1176.018188,211.977203   C1176.649170,211.991714 1177.298096,211.758102 1177.919556,211.575027   C1185.539062,209.330978 1188.875610,204.733688 1188.902466,194.178741   C1188.942749,178.440582 1188.455688,162.696762 1187.941528,146.963577   C1187.725342,140.349121 1183.286987,135.625259 1176.647705,135.085205   C1168.265625,134.403397 1159.832520,134.031525 1151.423706,134.068787   C1137.576782,134.130157 1124.753784,137.561020 1113.801392,146.623230   C1111.122192,148.840012 1109.136353,151.026321 1110.000000,155.675140  z"
   id="path886" />
<path
   fill="#B6B6B6"
   opacity="1.000000"
   stroke="none"
   d=" M1054.844971,167.000275   C1056.550293,166.192856 1058.863403,165.330551 1058.825806,164.586609   C1058.464355,157.405746 1057.817871,150.232605 1057.026855,143.082260   C1056.453491,137.898895 1052.119507,134.283905 1045.227417,134.120316   C1029.404175,133.744705 1013.560974,133.768555 997.735840,134.101913   C990.074890,134.263275 987.003357,139.202774 986.039551,147.737579   C985.784668,149.994736 986.001099,152.305099 986.001099,154.613525   C985.112244,154.797836 984.647888,154.974091 984.182251,154.977737   C981.024658,155.002426 977.866760,154.990662 974.745667,154.990662   C972.363220,145.106369 975.000244,130.828583 984.060242,126.763351   C989.240540,124.438965 995.323486,123.412949 1001.056213,123.178925   C1013.700867,122.662766 1026.391357,122.718506 1039.042358,123.150520   C1044.987183,123.353516 1051.006226,124.506950 1056.772827,126.048676   C1064.996948,128.247498 1069.630127,134.756042 1069.791870,142.633575   C1070.337036,169.192398 1069.999390,195.769318 1069.999390,222.671814   C1067.718628,222.671814 1064.653320,222.671814 1061.160400,222.671814   C1060.647583,218.279007 1060.123779,213.792892 1059.571289,209.060165   C1053.841431,212.431152 1048.419922,216.321716 1042.437744,218.922379   C1037.491943,221.072556 1031.923462,222.578476 1026.560547,222.822891   C1014.253662,223.383728 1001.901184,223.157990 989.572205,222.952026   C979.108521,222.777252 969.728394,215.962769 969.983398,203.315628   C970.084167,198.318024 970.197205,193.307343 969.960205,188.318954   C969.403015,176.588135 977.118652,166.999481 991.366577,167.000198   C1012.365051,167.001266 1033.363525,167.000381 1054.844971,167.000275  M989.669739,212.198975   C994.413147,212.466095 999.155701,212.934326 1003.900208,212.956482   C1012.534485,212.996826 1021.202209,213.199219 1029.796753,212.550735   C1040.639648,211.732605 1048.806763,204.883621 1057.216431,198.865356   C1058.104126,198.230118 1058.893433,196.804794 1058.919922,195.726242   C1059.077637,189.287643 1058.997925,182.843231 1058.997925,176.011215   C1037.607910,176.011215 1016.675049,175.712784 995.761292,176.213104   C990.272766,176.344391 983.326294,177.221268 982.600220,185.009766   C981.989929,191.557098 981.743958,198.280319 982.611511,204.754883   C982.967285,207.409821 986.671936,209.616028 989.669739,212.198975  z"
   id="path888" />
<path
   fill="#37B8F9"
   opacity="1.000000"
   stroke="none"
   d=" M232.341644,329.905396   C238.397293,319.625793 244.328659,309.025391 251.436401,299.283295   C264.717804,281.079437 278.584229,263.297729 292.416595,245.503098   C297.091736,239.488770 302.252350,233.828903 307.453491,228.251755   C315.268982,219.871307 323.315582,211.706360 331.543091,203.306412   C334.065521,234.168854 325.242706,261.997650 306.110535,286.126556   C287.904266,309.087769 264.049377,323.628937 234.974289,329.063629   C234.202637,329.207886 233.488953,329.662170 232.341644,329.905396  z"
   id="path890" />
<path
   fill="#FCFEFF"
   opacity="1.000000"
   stroke="none"
   d=" M785.999939,156.000000   C785.999939,144.531082 785.999939,133.562164 785.999939,122.297424   C791.602478,122.297424 797.010559,122.297424 802.833862,122.297424   C803.756592,126.599403 804.717224,131.078232 805.529297,134.864120   C813.566589,131.173615 821.134827,126.476250 829.370728,124.257927   C837.735168,122.004974 846.758301,122.197594 855.793945,121.288948   C855.793945,129.783310 855.793945,137.182770 855.793945,145.000107   C849.684082,145.000107 843.729919,145.181747 837.790894,144.959610   C827.662964,144.580765 819.174255,148.415756 811.793884,154.911255   C810.592834,155.968277 810.080139,158.355057 810.069092,160.132324   C809.949646,179.278030 809.994629,198.424744 809.994568,217.571182   C809.994568,219.207504 809.994507,220.843826 809.994507,222.738693   C801.997375,222.738693 794.264954,222.738693 785.999939,222.738693   C785.999939,200.659225 785.999939,178.579605 785.999939,156.000000  z"
   id="path892" />
<path
   fill="#FCFEFF"
   opacity="1.000000"
   stroke="none"
   d=" M550.260254,133.245224   C563.652466,121.829689 579.501709,121.958946 595.684570,122.009140   C595.684570,129.557739 595.684570,136.964203 595.684570,144.999985   C590.255859,144.999985 584.651184,145.238998 579.074158,144.948456   C568.611694,144.403397 559.677124,147.975998 552.000305,154.749878   C550.694275,155.902298 550.090027,158.460281 550.077698,160.374817   C549.944336,181.024582 549.994568,201.675522 549.994568,222.662964   C542.152344,222.662964 534.412170,222.662964 526.334534,222.662964   C526.334534,189.480896 526.334534,156.083603 526.334534,122.343163   C531.497253,122.343163 536.905090,122.343163 542.821777,122.343163   C543.724243,126.519646 544.690552,130.991608 545.803406,136.142120   C547.472107,135.092514 548.733337,134.299255 550.260254,133.245224  z"
   id="path894" />
<path
   fill="#5A74F8"
   opacity="1.000000"
   stroke="none"
   d=" M326.026245,83.507675   C317.292267,101.681305 308.675537,119.540573 299.742065,137.239990   C290.358704,155.830673 280.587921,174.225571 271.164520,192.796402   C267.971832,199.088287 265.452789,205.719803 262.343750,212.057693   C261.419647,213.941559 259.534943,215.354218 257.643921,216.531830   C257.260071,199.721283 257.322662,183.361694 257.733734,166.992950   C260.478180,163.794601 263.429291,160.881210 265.174652,157.368729   C272.983978,141.652893 280.359558,125.722282 288.066406,109.954582   C294.880859,96.012726 301.848145,82.143738 308.926056,68.333839   C310.624207,65.020538 313.028503,62.069149 315.108032,58.951309   C318.740112,67.008545 322.372162,75.065788 326.026245,83.507675  z"
   id="path896" />
<path
   fill="#5779F8"
   opacity="1.000000"
   stroke="none"
   d=" M314.963379,58.630905   C313.028503,62.069149 310.624207,65.020538 308.926056,68.333839   C301.848145,82.143738 294.880859,96.012726 288.066406,109.954582   C280.359558,125.722282 272.983978,141.652893 265.174652,157.368729   C263.429291,160.881210 260.478180,163.794601 257.639587,166.532455   C256.505096,148.040131 259.099121,129.796326 254.181458,111.893494   C255.920654,109.931900 257.665497,108.279732 258.697235,106.262779   C261.933258,99.936623 264.837372,93.441826 267.985107,87.069176   C274.827118,73.217216 281.794464,59.426956 288.591248,45.553017   C290.610718,41.430889 292.232666,37.114052 294.036743,32.886429   C300.964081,41.361118 307.891388,49.835808 314.963379,58.630905  z"
   id="path898" />
<path
   fill="#5381F8"
   opacity="1.000000"
   stroke="none"
   d=" M293.900360,32.574821   C292.232666,37.114052 290.610718,41.430889 288.591248,45.553017   C281.794464,59.426956 274.827118,73.217216 267.985107,87.069176   C264.837372,93.441826 261.933258,99.936623 258.697235,106.262779   C257.665497,108.279732 255.920654,109.931900 253.919769,111.674576   C248.427979,99.518036 240.248627,90.245903 229.173981,83.460106   C231.364273,79.818138 233.783127,76.292374 235.704330,72.513596   C243.059555,58.046902 250.265335,43.504124 257.504120,28.978380   C260.006683,23.956608 262.442810,18.901752 264.952820,13.514767   C273.299347,18.579174 281.609436,23.980097 289.898346,29.413321   C291.235199,30.289587 292.477814,31.309629 293.900360,32.574821  z"
   id="path900" />
<path
   fill="#FCFEFF"
   opacity="1.000000"
   stroke="none"
   d=" M611.000000,215.932724   C611.000000,184.472305 611.000000,153.505234 611.000000,122.269791   C618.990295,122.269791 626.727905,122.269791 634.734436,122.269791   C634.734436,155.664719 634.734436,189.065414 634.734436,222.733368   C627.005310,222.733368 619.266968,222.733368 611.000000,222.733368   C611.000000,220.636139 611.000000,218.531097 611.000000,215.932724  z"
   id="path902" />
<path
   fill="#B6B6B6"
   opacity="1.000000"
   stroke="none"
   d=" M930.000488,174.000000   C930.000488,145.886765 930.000488,118.273521 930.000488,90.330338   C933.937012,90.330338 937.663391,90.330338 941.699585,90.330338   C941.699585,134.291367 941.699585,178.314850 941.699585,222.669540   C938.062988,222.669540 934.336487,222.669540 930.000488,222.669540   C930.000488,206.658768 930.000488,190.579376 930.000488,174.000000  z"
   id="path904" />
<path
   fill="#FCFEFF"
   opacity="1.000000"
   stroke="none"
   d=" M611.000000,99.990662   C611.000000,96.522400 611.000000,93.544777 611.000000,90.285950   C618.951782,90.285950 626.689575,90.285950 634.715149,90.285950   C634.715149,96.289635 634.715149,102.360359 634.715149,108.717316   C627.041199,108.717316 619.303406,108.717316 611.000000,108.717316   C611.000000,106.021500 611.000000,103.251404 611.000000,99.990662  z"
   id="path906" />
<path
   fill="#FCFEFF"
   opacity="1.000000"
   stroke="none"
   d=" M108.701881,76.292931   C121.704376,76.120720 134.388809,76.153549 147.536880,76.109390   C155.608292,76.097687 163.238770,75.823982 170.816925,76.331535   C177.309906,76.766411 183.742981,78.095863 190.597229,79.030228   C201.233444,84.592194 208.494385,92.478378 210.575012,104.334991   C210.911133,106.250374 210.917419,108.223648 211.136230,110.906670   C200.765350,110.906670 190.846024,110.906670 179.999359,110.905617   C169.714417,110.955193 160.356857,111.005821 150.535675,110.981308   C142.742630,110.894936 135.410782,110.760292 128.084396,110.904160   C119.195572,111.078720 111.941772,117.827248 111.870552,126.546135   C111.705948,146.696213 111.911865,166.849289 111.890274,187.464645   C111.813026,195.042679 111.813026,202.157211 111.813026,209.076706   C107.300339,211.411850 106.616058,210.923264 95.179565,206.588623   C87.430328,202.169647 81.842384,196.012329 79.320053,187.981720   C77.535576,182.300262 77.669273,176.016342 77.020935,169.537537   C77.044876,154.049637 76.994560,139.025558 76.944244,124.001495   C77.060989,118.356171 76.705635,112.653511 77.382912,107.076256   C79.421700,90.287354 91.053192,79.024330 108.701881,76.292931  z"
   id="path908" />
<path
   fill="#FCFEFF"
   opacity="1.000000"
   stroke="none"
   d=" M228.870483,83.341118   C240.248627,90.245903 248.427979,99.518036 253.599121,111.817078   C259.099121,129.796326 256.505096,148.040131 257.291138,166.541595   C257.322662,183.361694 257.260071,199.721283 257.291504,216.541367   C257.385529,224.565414 257.385529,232.128967 257.385529,241.230545   C255.041840,239.229874 253.890198,238.246780 252.274796,236.802719   C246.556168,231.190308 241.301315,226.038849 235.906555,220.587891   C233.537933,217.874222 231.239578,215.520187 229.093521,213.034637   C222.547211,205.452759 222.761765,196.189011 222.817123,186.534271   C222.528458,158.382401 222.163223,130.693008 221.798004,103.003632   C218.669876,90.089272 210.372620,81.994492 198.028442,77.611588   C208.083054,75.835068 216.866547,77.457214 228.870483,83.341118  z"
   id="path910" />
<path
   fill="#FBFEFF"
   opacity="1.000000"
   stroke="none"
   d=" M225.457214,256.407471   C220.970016,256.440613 216.939423,256.375458 212.454803,256.408295   C203.307144,256.440582 194.613464,256.374878 185.460571,256.406982   C170.974197,256.439087 156.947083,256.373322 142.460785,256.405762   C133.480804,255.638275 124.838402,255.374069 116.483948,253.685349   C111.326683,252.642899 106.608101,249.430161 101.049011,246.957214   C91.177849,238.706024 83.822403,229.303467 79.088272,217.527252   C78.235313,210.874435 77.398422,204.642822 76.419533,197.353851   C81.667580,203.791229 85.832413,208.899918 90.169708,214.308746   C90.816864,215.051788 91.249001,215.554153 91.772552,215.928741   C102.228516,223.410217 114.185547,222.222260 126.003258,221.833878   C137.359985,221.877914 148.716705,221.921951 161.002518,221.965103   C175.621460,222.292526 189.311295,222.620834 203.307465,223.137512   C207.745667,225.653290 212.173935,227.587112 215.928940,230.414963   C219.965149,233.454590 223.369385,237.333389 227.192963,241.150879   C231.897644,245.967850 236.458755,250.479950 241.019867,254.992050   C240.865021,255.378647 240.710159,255.765259 240.281143,256.334534   C235.309265,256.447876 230.611542,256.378510 225.457214,256.407471  z"
   id="path912" />
<path
   fill="#5382F8"
   opacity="1.000000"
   stroke="none"
   d=" M203.001129,222.949127   C189.311295,222.620834 175.621460,222.292526 161.467102,221.898880   C164.601532,214.369141 168.116287,206.862656 171.822495,199.451904   C175.719635,191.659332 179.903091,184.009628 183.779388,176.207062   C192.683670,158.283691 201.470413,140.301926 210.320236,122.351456   C212.881027,117.157272 215.428818,111.954491 218.126114,106.831215   C218.855453,105.445869 220.109909,104.336975 221.460678,103.052414   C222.163223,130.693008 222.528458,158.382401 222.461548,186.543182   C220.777283,188.154617 219.204529,189.095001 218.343033,190.478317   C216.786011,192.978455 215.603180,195.719559 214.353607,198.401749   C210.546539,206.573532 206.782135,214.765198 203.001129,222.949127  z"
   id="path914" />
<path
   fill="#4B91F8"
   opacity="1.000000"
   stroke="none"
   d=" M126.047745,221.484589   C114.185547,222.222260 102.228516,223.410217 91.772552,215.928741   C91.249001,215.554153 90.816864,215.051788 90.207626,213.954254   C91.852654,211.151779 93.632210,209.003983 95.411774,206.856186   C106.616058,210.923264 107.300339,211.411850 111.813026,209.076706   C111.813026,202.157211 111.813026,195.042679 112.244537,187.409927   C116.276138,180.263718 119.983459,173.691238 123.450287,166.994247   C128.232407,157.756439 132.900726,148.457977 137.492371,139.123795   C142.075180,129.807617 146.503326,120.415352 150.999283,111.056450   C160.356857,111.005821 169.714417,110.955193 179.535583,110.979958   C176.356033,118.839424 172.832687,126.682304 169.045685,134.395752   C160.229797,152.352173 151.281647,170.243637 142.397430,188.166550   C136.952454,199.151199 131.526657,210.145386 126.047745,221.484589  z"
   id="path916" />
<path
   fill="#5B73F8"
   opacity="1.000000"
   stroke="none"
   d=" M241.324783,254.841492   C236.458755,250.479950 231.897644,245.967850 227.184464,240.788910   C230.037109,233.710526 233.041794,227.298950 236.046478,220.887390   C241.301315,226.038849 246.556168,231.190308 251.956024,236.644379   C250.086349,240.723022 248.161285,244.550766 246.023560,248.255814   C244.729233,250.499100 243.105453,252.552307 241.324783,254.841492  z"
   id="path918" />
<path
   fill="#43A0F9"
   opacity="1.000000"
   stroke="none"
   d=" M76.597641,124.061417   C76.994560,139.025558 77.044876,154.049637 76.683571,169.591553   C74.770386,172.237686 72.971802,174.217270 71.819008,176.520126   C66.991249,186.164124 62.394951,195.923630 57.640217,205.604660   C53.706978,213.613083 49.664799,221.567947 45.681152,229.551666   C41.492577,237.946106 37.311646,246.344345 33.135818,254.745132   C29.302013,262.457855 25.479462,270.176208 21.651951,277.892090   C17.429628,269.532318 13.207308,261.172516 8.935257,252.427490   C10.413343,251.046753 12.656110,250.409805 13.362064,249.002136   C24.504423,226.784531 35.366585,204.426605 46.466404,182.187408   C54.878666,165.332870 63.527714,148.596420 72.093323,131.818619   C73.418938,129.222076 74.862183,126.685593 76.597641,124.061417  z"
   id="path920" />
<path
   fill="#4995F8"
   opacity="1.000000"
   stroke="none"
   d=" M79.104347,217.948471   C83.822403,229.303467 91.177849,238.706024 100.702118,246.889374   C97.076576,255.206085 93.218521,263.387726 89.216743,271.498474   C83.585358,282.911987 77.944702,294.323242 72.100418,305.628174   C70.143051,309.414398 67.549873,312.871918 65.099365,316.793091   C56.037758,310.645172 47.124111,304.183868 38.229683,297.099854   C40.984428,291.391663 43.797138,286.345886 46.440231,281.212769   C52.924034,268.620758 59.294399,255.970337 65.778969,243.378708   C70.160416,234.870895 74.658463,226.423111 79.104347,217.948471  z"
   id="path922" />
<path
   fill="#469BF9"
   opacity="1.000000"
   stroke="none"
   d=" M79.088272,217.527252   C74.658463,226.423111 70.160416,234.870895 65.778969,243.378708   C59.294399,255.970337 52.924034,268.620758 46.440231,281.212769   C43.797138,286.345886 40.984428,291.391663 38.100388,296.791260   C32.627537,290.880554 27.303196,284.655762 21.815403,278.161499   C25.479462,270.176208 29.302013,262.457855 33.135818,254.745132   C37.311646,246.344345 41.492577,237.946106 45.681152,229.551666   C49.664799,221.567947 53.706978,213.613083 57.640217,205.604660   C62.394951,195.923630 66.991249,186.164124 71.819008,176.520126   C72.971802,174.217270 74.770386,172.237686 76.609314,170.055389   C77.669273,176.016342 77.535576,182.300262 79.320053,187.981720   C81.842384,196.012329 87.430328,202.169647 95.179565,206.588623   C93.632210,209.003983 91.852654,211.151779 90.035172,213.654083   C85.832413,208.899918 81.667580,203.791229 76.419533,197.353851   C77.398422,204.642822 78.235313,210.874435 79.088272,217.527252  z"
   id="path924" />




<path
   fill="#4997F9"
   opacity="1.000000"
   stroke="none"
   d=" M150.535675,110.981308   C146.503326,120.415352 142.075180,129.807617 137.492371,139.123795   C132.900726,148.457977 128.232407,157.756439 123.450287,166.994247   C119.983459,173.691238 116.276138,180.263718 112.321785,186.946442   C111.911865,166.849289 111.705948,146.696213 111.870552,126.546135   C111.941772,117.827248 119.195572,111.078720 128.084396,110.904160   C135.410782,110.760292 142.742630,110.894936 150.535675,110.981308  z"
   id="path934" />
<path
   fill="#5979F8"
   opacity="1.000000"
   stroke="none"
   d=" M235.906555,220.587891   C233.041794,227.298950 230.037109,233.710526 227.040894,240.484039   C223.369385,237.333389 219.965149,233.454590 215.928940,230.414963   C212.173935,227.587112 207.745667,225.653290 203.307465,223.137512   C206.782135,214.765198 210.546539,206.573532 214.353607,198.401749   C215.603180,195.719559 216.786011,192.978455 218.343033,190.478317   C219.204529,189.095001 220.777283,188.154617 222.385010,187.005676   C222.761765,196.189011 222.547211,205.452759 229.093521,213.034637   C231.239578,215.520187 233.537933,217.874222 235.906555,220.587891  z"
   id="path936" />
</svg>
