<svg width="721" height="180" viewBox="0 0 721 180" fill="none" xmlns="http://www.w3.org/2000/svg">
<g clip-path="url(#clip0_2157_1780)">
<path fill-rule="evenodd" clip-rule="evenodd" d="M180 0H0V180H180V0ZM69.4924 59.8449H114.555C114.555 50.5596 107.804 42.8541 98.9507 41.3636C97.9297 41.1848 96.879 41.0954 95.8059 41.0954H60.1176C49.7666 41.0954 41.3681 49.4865 41.3681 59.8449V95.5183C41.3681 96.5914 41.4575 97.6421 41.6363 98.6631C43.1268 107.524 50.8397 114.275 60.1176 114.275V69.2197C60.1176 64.0405 64.3132 59.8449 69.4924 59.8449ZM131.367 139.277H71.7132C54.9608 139.277 41.3755 125.692 41.3755 108.932V101.771C41.3755 102.844 41.465 103.894 41.6438 104.915C43.1342 113.776 50.8472 120.528 60.1251 120.528H105.188C109.92 120.602 114.22 122.435 117.477 125.394L117.641 125.55C117.939 125.826 118.229 126.109 118.498 126.407L131.367 139.277ZM139.557 131.08V71.433C139.557 54.6731 125.972 41.0954 109.22 41.0954H102.058C103.131 41.0954 104.182 41.1848 105.203 41.3636C114.056 42.8541 120.808 50.5596 120.808 59.8449V104.61C120.808 109.409 122.611 113.783 125.585 117.107L139.557 131.08Z" fill="#FCFEFF"/>
</g>
<path d="M667.026 109.915V105.163H673.121V109.398C673.121 113.944 675.083 115.906 679.732 115.906H707.934C712.582 115.906 714.545 113.944 714.545 109.398V103.2C714.545 98.6548 712.789 96.8987 707.934 96.3822L679.112 93.3864C671.675 92.6633 668.059 89.3577 668.059 82.2298V78.0977C668.059 70.7633 671.778 67.0444 679.112 67.0444H708.243C715.578 67.0444 719.297 70.7633 719.297 78.0977V82.5397H713.202V78.6143C713.202 73.9657 711.239 72.1062 706.591 72.1062H680.868C676.22 72.1062 674.257 73.9657 674.257 78.6143V81.4034C674.257 85.9487 676.22 87.7048 680.868 88.118L709.69 91.1138C717.024 91.8369 720.743 95.2459 720.743 102.374V109.915C720.743 117.249 717.024 120.968 709.69 120.968H678.079C670.951 120.968 667.026 117.043 667.026 109.915Z" fill="#FCFEFF"/>
<path d="M628.894 67.0446H637.984C649.244 67.0446 653.893 71.4865 653.893 82.9531V105.06C653.893 116.526 649.244 120.968 637.984 120.968H628.894C623.832 120.968 619.803 120.555 616.911 119.832C613.915 119.109 610.816 117.663 607.51 115.287L603.894 112.704L602.965 120.968H598.11V48.6568H604.308V74.9988L607.51 72.7262C610.712 70.3502 613.811 68.8007 616.807 68.0776C619.7 67.3545 623.728 67.0446 628.894 67.0446ZM647.591 104.44V83.5729C647.591 74.9988 645.009 72.4163 636.435 72.4163H627.344C619.906 72.4163 614.018 73.8625 609.783 76.8582L604.308 80.7837V107.229L609.783 111.051C614.018 114.047 619.906 115.596 627.344 115.596H636.435C645.009 115.596 647.591 113.014 647.591 104.44Z" fill="#FCFEFF"/>
<path d="M543.995 67.0444H566.928C578.395 67.0444 582.837 71.3831 582.837 82.9529V120.968H577.982L577.052 112.704L572.403 115.906C569.304 118.076 566.618 119.522 564.243 120.038C561.867 120.658 558.458 120.968 553.912 120.968H540.586C532.219 120.968 528.087 116.836 528.087 108.469V103.303C528.087 94.936 532.219 90.8039 540.586 90.8039H576.639V83.2628C576.639 74.6888 573.953 72.1062 565.379 72.1062H545.545C539.037 72.1062 536.661 74.4822 536.661 80.9902V83.6761H530.566V80.4737C530.566 71.2798 534.905 67.0444 543.995 67.0444ZM570.131 112.084L576.639 107.642V95.4525H542.549C536.454 95.4525 534.285 97.6218 534.285 103.717V107.849C534.285 113.944 536.454 116.01 542.549 116.01H555.565C561.557 116.01 566.412 114.667 570.131 112.084Z" fill="#FCFEFF"/>
<path d="M512.814 120.968H506.513V48.6568H512.814V120.968Z" fill="#FCFEFF"/>
<path d="M461.471 66.4227H465.604V78.0963H457.856C451.967 78.0963 447.525 79.2326 444.426 81.6087L440.294 84.7079V120.968H427.69V66.4227H436.781L438.331 74.4806L439.984 73.2409C443.496 70.3483 446.699 68.4888 449.488 67.6624C452.277 66.8359 456.203 66.4227 461.471 66.4227Z" fill="#FCFEFF"/>
<path d="M374.703 66.423H398.256C410.343 66.423 415.405 71.2783 415.405 83.5717V120.968H405.178L403.732 113.634L401.975 114.977C398.773 117.559 396.087 119.212 393.711 119.935C391.335 120.659 387.719 120.968 382.864 120.968H370.364C361.789 120.968 357.554 116.733 357.554 108.159V102.477C357.554 93.9023 361.789 89.6668 370.364 89.6668H402.905V84.2949C402.905 77.6833 400.736 75.6172 394.021 75.6172H379.145C374.083 75.6172 372.12 77.3734 372.12 82.642V84.6048H360.033V81.0924C360.033 71.0717 364.785 66.423 374.703 66.423ZM398.153 109.192L402.905 105.679V97.1048H376.252C371.604 97.1048 370.054 98.7577 370.054 103.303V106.196C370.054 110.844 371.604 112.394 376.252 112.394H386.789C391.438 112.394 395.157 111.361 398.153 109.192Z" fill="#FCFEFF"/>
<path d="M345.172 58.8814H332.362V48.6541H345.172V58.8814ZM345.172 120.968H332.362V66.4227H345.172V120.968Z" fill="#FCFEFF"/>
<path d="M319.663 66.423H323.795V78.0965H316.047C310.158 78.0965 305.716 79.2329 302.617 81.6089L298.485 84.7081V120.968H285.882V66.423H294.973L296.522 74.4808L298.175 73.2412C301.687 70.3486 304.89 68.4891 307.679 67.6626C310.468 66.8362 314.394 66.423 319.663 66.423Z" fill="#FCFEFF"/>
<path fill-rule="evenodd" clip-rule="evenodd" d="M271.411 116.762C269.544 118.854 266.955 120.078 263.747 120.618L272.193 131.346H258.785L251.002 120.968H236.025C231.109 120.968 227.248 119.857 224.634 117.243C222.02 114.63 220.909 110.768 220.909 105.852V81.5387C220.909 76.6227 222.02 72.7612 224.634 70.1475C227.248 67.5338 231.109 66.4227 236.025 66.4227H259.597C264.513 66.4227 268.375 67.5338 270.989 70.1475C273.602 72.7612 274.713 76.6227 274.713 81.5387V105.852C274.713 110.501 273.717 114.178 271.411 116.762ZM262.568 83.3177V104.073C262.568 106.673 262.076 108.074 261.28 108.869C260.485 109.665 259.084 110.157 256.484 110.157H239.138C236.517 110.157 235.123 109.693 234.335 108.918C233.551 108.146 233.054 106.758 233.054 104.073V83.3177C233.054 80.6332 233.551 79.2446 234.335 78.4734C235.123 77.6975 236.517 77.2335 239.138 77.2335H256.484C259.084 77.2335 260.485 77.7262 261.28 78.5215C262.076 79.3169 262.568 80.7181 262.568 83.3177Z" fill="#FCFEFF"/>
<defs>
<clipPath id="clip0_2157_1780">
<rect width="180" height="180" rx="65.4545" fill="white"/>
</clipPath>
</defs>
</svg>
