<?xml version="1.0" encoding="UTF-8" standalone="no"?>
<svg
   xmlns:dc="http://purl.org/dc/elements/1.1/"
   xmlns:cc="http://creativecommons.org/ns#"
   xmlns:rdf="http://www.w3.org/1999/02/22-rdf-syntax-ns#"
   xmlns:svg="http://www.w3.org/2000/svg"
   xmlns="http://www.w3.org/2000/svg"
   xmlns:sodipodi="http://sodipodi.sourceforge.net/DTD/sodipodi-0.dtd"
   xmlns:inkscape="http://www.inkscape.org/namespaces/inkscape"
   version="1.1"
   id="svg842"
   xml:space="preserve"
   width="1795.9067"
   height="343.98267"
   viewBox="0 0 1795.9067 343.98267"
   sodipodi:docname="logo.svg"
   inkscape:version="1.0.1 (c497b03c, 2020-09-10)"><metadata
     id="metadata848"><rdf:RDF><cc:Work
         rdf:about=""><dc:format>image/svg+xml</dc:format><dc:type
           rdf:resource="http://purl.org/dc/dcmitype/StillImage" /><dc:title /></cc:Work></rdf:RDF></metadata><defs
     id="defs846"><clipPath
       clipPathUnits="userSpaceOnUse"
       id="clipPath858"><path
         d="M 0,257.987 H 1346.933 V 0 H 0 Z"
         id="path856" /></clipPath></defs><sodipodi:namedview
     pagecolor="#ffffff"
     bordercolor="#666666"
     borderopacity="1"
     objecttolerance="10"
     gridtolerance="10"
     guidetolerance="10"
     inkscape:pageopacity="0"
     inkscape:pageshadow="2"
     inkscape:window-width="1584"
     inkscape:window-height="650"
     id="namedview844"
     showgrid="false"
     inkscape:zoom="0.39645711"
     inkscape:cx="897.95337"
     inkscape:cy="171.99133"
     inkscape:window-x="0"
     inkscape:window-y="25"
     inkscape:window-maximized="0"
     inkscape:current-layer="g850"
     inkscape:document-rotation="0" /><g
     id="g850"
     inkscape:groupmode="layer"
     inkscape:label="Marca Positiva e Negativa"
     transform="matrix(1.3333333,0,0,-1.3333333,0,343.98267)"><g
       id="g852"
       style="fill:#ececec"
       transform="matrix(1.9111455,0,0,1.8678941,-812.26013,-110.5802)"><g
         id="g854"
         clip-path="url(#clipPath858)"
         style="fill:#ececec"><g
           id="g860"
           transform="translate(673.2791,141.5234)"
           style="fill:#ececec"><path
             d="m 0,0 v -25.06 c 0,-5.7 -1.737,-7.437 -7.437,-7.437 H -28.38 c -6.908,0 -10.41,2.502 -10.41,7.437 V 0 c 0,4.936 3.502,7.437 10.41,7.437 H -7.437 C -1.737,7.437 0,5.7 0,0 m -3.679,20.307 h -28.46 c -13.428,0 -21.131,-6.619 -21.131,-18.159 v -29.356 c 0,-11.539 7.703,-18.157 21.131,-18.157 h 18.143 l 7.799,-10.064 c 0.91,-1.592 2.498,-2.467 4.487,-2.467 h 5.997 c 2.192,0 3.111,1.061 3.463,1.694 0.353,0.631 0.769,1.969 -0.388,3.837 l -6.054,7.413 c 8.855,1.493 13.171,7.324 13.171,17.744 V 2.148 c 0,12.219 -5.939,18.159 -18.158,18.159"
             style="fill:#ececec;fill-opacity:1;fill-rule:nonzero;stroke:none"
             id="path862" /></g><g
           id="g864"
           transform="translate(741.2,160.3183)"
           style="fill:#ececec"><path
             d="m 0,0 c 2.374,0 3.561,-1.187 3.561,-3.561 v -6.291 c 0,-2.374 -1.187,-3.561 -3.561,-3.561 h -5.341 c -6.528,0 -11.75,-1.305 -15.43,-4.035 l -4.748,-3.679 v -37.981 c 0,-2.374 -1.186,-3.562 -3.56,-3.562 h -7.359 c -2.374,0 -3.561,1.188 -3.561,3.562 v 55.547 c 0,2.374 1.187,3.561 3.561,3.561 h 3.679 c 2.137,0 3.443,-1.069 3.917,-3.086 l 1.069,-6.173 1.899,1.425 c 4.035,3.323 7.596,5.46 10.563,6.409 C -12.344,-0.476 -7.952,0 -2.374,0 Z"
             style="fill:#ececec;fill-opacity:1;fill-rule:nonzero;stroke:none"
             id="path866" /></g><g
           id="g868"
           transform="translate(758.1726,97.6484)"
           style="fill:#ececec"><path
             d="m 0,0 c -2.374,0 -3.56,1.187 -3.56,3.562 v 55.547 c 0,2.374 1.186,3.561 3.56,3.561 h 7.597 c 2.374,0 3.56,-1.187 3.56,-3.561 V 3.562 C 11.157,1.187 9.971,0 7.597,0 Z m 0,71.334 c -2.374,0 -3.56,1.187 -3.56,3.561 v 4.628 c 0,2.374 1.186,3.561 3.56,3.561 h 7.597 c 2.374,0 3.56,-1.187 3.56,-3.561 v -4.628 c 0,-2.374 -1.186,-3.561 -3.56,-3.561 z"
             style="fill:#ececec;fill-opacity:1;fill-rule:nonzero;stroke:none"
             id="path870" /></g><g
           id="g872"
           transform="translate(835.6765,115.2148)"
           style="fill:#ececec"><path
             d="m 0,0 v 9.852 h -30.385 c -5.578,0 -7.358,-1.781 -7.358,-7.36 v -2.847 c 0,-5.58 1.78,-7.36 7.358,-7.36 h 11.869 c 5.223,0 9.495,1.188 12.938,3.68 z m -5.341,45.104 c 13.887,0 19.703,-5.579 19.703,-19.704 v -39.405 c 0,-2.374 -1.187,-3.561 -3.561,-3.561 H 5.697 c -2.017,0 -3.323,0.95 -3.916,2.967 l -0.95,5.342 -1.898,-1.426 c -3.68,-2.965 -6.885,-4.865 -9.615,-5.696 -2.73,-0.831 -6.765,-1.187 -12.343,-1.187 h -14.363 c -9.85,0 -14.717,4.866 -14.717,14.718 V 3.68 c 0,9.851 4.867,14.717 14.717,14.717 H 0 v 6.172 c 0,7.597 -2.492,9.971 -10.207,9.971 h -17.21 c -5.816,0 -7.953,-2.018 -7.953,-7.241 v -0.831 c 0,-1.542 -0.712,-2.255 -2.136,-2.255 h -9.258 c -1.662,0 -2.492,0.831 -2.492,2.493 v 1.78 c 0,11.394 5.459,16.618 16.854,16.618 z"
             style="fill:#ececec;fill-opacity:1;fill-rule:nonzero;stroke:none"
             id="path874" /></g><g
           id="g876"
           transform="translate(904.5164,160.3183)"
           style="fill:#ececec"><path
             d="m 0,0 c 2.373,0 3.561,-1.187 3.561,-3.561 v -6.291 c 0,-2.374 -1.188,-3.561 -3.561,-3.561 h -5.341 c -6.528,0 -11.751,-1.305 -15.43,-4.035 l -4.748,-3.679 v -37.981 c 0,-2.374 -1.186,-3.562 -3.56,-3.562 h -7.359 c -2.375,0 -3.561,1.188 -3.561,3.562 v 55.547 c 0,2.374 1.186,3.561 3.561,3.561 h 3.678 c 2.137,0 3.444,-1.069 3.918,-3.086 l 1.068,-6.173 1.899,1.425 c 4.035,3.323 7.597,5.46 10.563,6.409 C -12.344,-0.476 -7.953,0 -2.374,0 Z"
             style="fill:#ececec;fill-opacity:1;fill-rule:nonzero;stroke:none"
             id="path878" /></g><g
           id="g880"
           transform="translate(537.0613,169.7094)"
           style="fill:#ececec"><path
             d="m 0,0 h -60.47 c -6.95,0 -12.58,-5.63 -12.58,-12.58 v -60.46 c -12.45,0 -22.8,9.06 -24.8,20.95 -0.24,1.37 -0.36,2.78 -0.36,4.22 V 0 c 0,13.9 11.271,25.16 25.16,25.16 h 47.89 c 1.44,0 2.85,-0.12 4.221,-0.36 C -9.06,22.8 0,12.46 0,0"
             style="fill:#ececec;fill-opacity:1;fill-rule:nonzero;stroke:none"
             id="path882" /></g><g
           id="g884"
           transform="translate(559.616,63.1181)"
           style="fill:#ececec"><path
             d="m 0,0 h -80.05 c -22.48,0 -40.71,18.229 -40.71,40.72 v 9.609 c 0,-1.439 0.12,-2.85 0.36,-4.22 2,-11.889 12.35,-20.95 24.799,-20.95 h 60.471 c 6.35,-0.099 12.12,-2.559 16.49,-6.529 l 0.22,-0.21 c 0.399,-0.37 0.79,-0.75 1.149,-1.15 z"
             style="fill:#ececec;fill-opacity:1;fill-rule:nonzero;stroke:none"
             id="path886" /></g><g
           id="g888"
           transform="translate(570.6062,154.1577)"
           style="fill:#ececec"><path
             d="m 0,0 v -80.04 l -18.75,18.75 c -3.99,4.46 -6.41,10.33 -6.41,16.77 v 60.07 c 0,12.46 -9.061,22.8 -20.941,24.8 -1.37,0.24 -2.779,0.36 -4.219,0.36 h 9.61 C -18.23,40.71 0,22.49 0,0"
             style="fill:#ececec;fill-opacity:1;fill-rule:nonzero;stroke:none"
             id="path890" /></g><g
           id="g892"
           transform="translate(673.2839,141.4931)"
           style="fill:#ececec"><path
             d="m 0,0 v -25.06 c 0,-5.7 -1.738,-7.437 -7.438,-7.437 h -20.943 c -6.907,0 -10.409,2.503 -10.409,7.437 V 0 c 0,4.936 3.502,7.437 10.409,7.437 H -7.438 C -1.738,7.437 0,5.7 0,0 m -3.68,20.307 h -28.46 c -13.428,0 -21.131,-6.619 -21.131,-18.159 v -29.356 c 0,-11.539 7.703,-18.157 21.131,-18.157 h 18.143 l 7.8,-10.064 c 0.909,-1.592 2.498,-2.467 4.487,-2.467 h 5.996 c 2.193,0 3.111,1.061 3.464,1.694 0.352,0.631 0.769,1.969 -0.389,3.837 l -6.053,7.413 c 8.855,1.493 13.171,7.324 13.171,17.744 V 2.148 c 0,12.219 -5.94,18.159 -18.159,18.159"
             style="fill:#ececec;fill-opacity:1;fill-rule:nonzero;stroke:none"
             id="path894" /></g><g
           id="g896"
           transform="translate(741.2048,160.288)"
           style="fill:#ececec"><path
             d="m 0,0 c 2.374,0 3.561,-1.187 3.561,-3.561 v -6.291 c 0,-2.374 -1.187,-3.561 -3.561,-3.561 h -5.341 c -6.528,0 -11.751,-1.305 -15.43,-4.035 l -4.748,-3.679 v -37.981 c 0,-2.374 -1.186,-3.562 -3.56,-3.562 h -7.359 c -2.375,0 -3.561,1.188 -3.561,3.562 v 55.547 c 0,2.374 1.186,3.561 3.561,3.561 h 3.679 c 2.137,0 3.443,-1.069 3.917,-3.086 l 1.068,-6.173 1.899,1.425 c 4.036,3.323 7.597,5.46 10.563,6.409 C -12.344,-0.476 -7.953,0 -2.374,0 Z"
             style="fill:#ececec;fill-opacity:1;fill-rule:nonzero;stroke:none"
             id="path898" /></g><g
           id="g900"
           transform="translate(758.1775,97.6181)"
           style="fill:#ececec"><path
             d="m 0,0 c -2.374,0 -3.561,1.187 -3.561,3.562 v 55.547 c 0,2.374 1.187,3.561 3.561,3.561 h 7.596 c 2.374,0 3.561,-1.187 3.561,-3.561 V 3.562 C 11.157,1.187 9.97,0 7.596,0 Z m 0,71.334 c -2.374,0 -3.561,1.187 -3.561,3.561 v 4.628 c 0,2.374 1.187,3.561 3.561,3.561 h 7.596 c 2.374,0 3.561,-1.187 3.561,-3.561 v -4.628 c 0,-2.374 -1.187,-3.561 -3.561,-3.561 z"
             style="fill:#ececec;fill-opacity:1;fill-rule:nonzero;stroke:none"
             id="path902" /></g><g
           id="g904"
           transform="translate(835.6814,115.1845)"
           style="fill:#ececec"><path
             d="m 0,0 v 9.852 h -30.385 c -5.579,0 -7.359,-1.781 -7.359,-7.36 v -2.847 c 0,-5.58 1.78,-7.36 7.359,-7.36 h 11.868 c 5.223,0 9.496,1.188 12.938,3.68 z m -5.342,45.104 c 13.888,0 19.703,-5.579 19.703,-19.704 v -39.405 c 0,-2.374 -1.186,-3.561 -3.56,-3.561 H 5.696 c -2.017,0 -3.322,0.95 -3.916,2.967 l -0.949,5.342 -1.899,-1.425 c -3.68,-2.966 -6.884,-4.866 -9.614,-5.697 -2.73,-0.831 -6.765,-1.187 -12.344,-1.187 h -14.362 c -9.851,0 -14.717,4.866 -14.717,14.718 V 3.68 c 0,9.852 4.866,14.717 14.717,14.717 H 0 v 6.172 c 0,7.597 -2.492,9.971 -10.207,9.971 h -17.211 c -5.815,0 -7.952,-2.018 -7.952,-7.241 v -0.831 c 0,-1.542 -0.712,-2.255 -2.137,-2.255 h -9.258 c -1.661,0 -2.492,0.831 -2.492,2.493 v 1.78 c 0,11.394 5.46,16.618 16.855,16.618 z"
             style="fill:#ececec;fill-opacity:1;fill-rule:nonzero;stroke:none"
             id="path906" /></g><g
           id="g908"
           transform="translate(904.5203,160.288)"
           style="fill:#ececec"><path
             d="m 0,0 c 2.374,0 3.561,-1.187 3.561,-3.561 v -6.291 c 0,-2.374 -1.187,-3.561 -3.561,-3.561 h -5.341 c -6.528,0 -11.75,-1.305 -15.43,-4.035 l -4.747,-3.679 v -37.981 c 0,-2.374 -1.187,-3.562 -3.561,-3.562 h -7.359 c -2.374,0 -3.561,1.188 -3.561,3.562 v 55.547 c 0,2.374 1.187,3.561 3.561,3.561 h 3.679 c 2.137,0 3.443,-1.069 3.917,-3.086 l 1.069,-6.173 1.899,1.425 c 4.035,3.323 7.596,5.46 10.563,6.409 C -12.344,-0.476 -7.952,0 -2.374,0 Z"
             style="fill:#ececec;fill-opacity:1;fill-rule:nonzero;stroke:none"
             id="path910" /></g></g></g><text
       transform="scale(1.0106024,-0.98950884)"
       style="font-style:italic;font-variant:normal;font-weight:normal;font-stretch:normal;font-size:182.467px;font-family:'Sica 4';-inkscape-font-specification:Sica-Regular3;writing-mode:lr-tb;fill:#e6e6e6;fill-opacity:1;fill-rule:nonzero;stroke:none;stroke-width:1.92071"
       id="text914"
       x="920.50244"
       y="-67.762505"><tspan
         x="920.50244 965.75421 1066.6584 1168.4751"
         y="-67.762505"
         sodipodi:role="line"
         id="tspan912"
         style="fill:#e6e6e6;stroke-width:1.92071">labs</tspan></text></g></svg>
